# xmcd
#
# Track frame offsets: 
#        150
#        12682
#        26195
#        38615
#        52432
#        63602
#        76452
#        88807
#        102240
#        116032
#        129140
#
# Disc length: 1874 seconds
#
# Revision: 6
# Processed by: cddbd v1.5.2PL0 Copyright (c) Steve Scherf et al.
# Submitted via: ExactAudioCopyFreeDBPlugin 1.0
#
DISCID=9a07500b
DTITLE=Motown - Motown Legends - Volume 4
DYEAR=1995
DGENRE=R and B
TTITLE0=Mary Wells - You Beat Me To The Punch
TTITLE1=Smokey Robinson and The Miracles - You Really Got A Hold On Me
TTITLE2=Diana Ross and The Supremes - I Hear A Symphony
TTITLE3=Marvin Gaye and Tammi Terrell - Your Precious Love
TTITLE4=The Temptations - (I know) I'm Losing You
TTITLE5=Diana Ross and The Supremes - The Happening
TTITLE6=Martha Reeves and The Vandellas - Jimmy Mack
TTITLE7=Marvin Gaye - Too Busy Thinking About My Baby
TTITLE8=Four Tops - Bernadette
TTITLE9=The Temptations - I Can't Get Next To You
TTITLE10=Marvin Gaye - Hitchhike
EXTD=
EXTT0=
EXTT1=
EXTT2=
EXTT3=
EXTT4=
EXTT5=
EXTT6=
EXTT7=
EXTT8=
EXTT9=
EXTT10=
PLAYORDER=
